<?xml version="1.0" encoding="UTF-8" standalone="no"?>
<!-- Created with Inkscape (http://www.inkscape.org/) -->

<svg
   xmlns:dc="http://purl.org/dc/elements/1.1/"
   xmlns:cc="http://creativecommons.org/ns#"
   xmlns:rdf="http://www.w3.org/1999/02/22-rdf-syntax-ns#"
   xmlns:svg="http://www.w3.org/2000/svg"
   xmlns="http://www.w3.org/2000/svg"
   xmlns:sodipodi="http://sodipodi.sourceforge.net/DTD/sodipodi-0.dtd"
   xmlns:inkscape="http://www.inkscape.org/namespaces/inkscape"
   id="svg3436"
   version="1.1"
   inkscape:version="0.91 r13725"
   width="32"
   height="32"
   viewBox="0 0 32 32"
   sodipodi:docname="check.svg">
  <metadata
     id="metadata3442">
    <rdf:RDF>
      <cc:Work
         rdf:about="">
        <dc:format>image/svg+xml</dc:format>
        <dc:type
           rdf:resource="http://purl.org/dc/dcmitype/StillImage" />
        <dc:title></dc:title>
      </cc:Work>
    </rdf:RDF>
  </metadata>
  <defs
     id="defs3440" />
  <sodipodi:namedview
     pagecolor="#ffffff"
     bordercolor="#666666"
     borderopacity="1"
     objecttolerance="10"
     gridtolerance="10"
     guidetolerance="10"
     inkscape:pageopacity="0"
     inkscape:pageshadow="2"
     inkscape:window-width="1916"
     inkscape:window-height="1041"
     id="namedview3438"
     showgrid="false"
     inkscape:zoom="10.429825"
     inkscape:cx="35.422634"
     inkscape:cy="2.5042783"
     inkscape:window-x="0"
     inkscape:window-y="18"
     inkscape:window-maximized="0"
     inkscape:current-layer="svg3436" />
  <g
     id="g3446"
     transform="matrix(0.0625,0,0,0.0625,0.0261099,0.25071007)">
    <path
       style="fill:#ecf9f1"
       d="m 234.24345,456.96448 c -8.9411,-0.99086 -18.6161,-2.29953 -21.5,-2.90816 -8.25911,-1.74303 -39.24661,-12.81413 -49.20424,-17.57952 C 154.13712,431.97727 132.88009,418.23101 122.5,409.93801 115.75891,404.55232 102.40427,391.06231 96.327311,383.5 83.767689,367.87052 68.065136,342.63298 65.528887,334 c -0.403955,-1.375 -2.219263,-6.325 -4.034016,-11 -1.814753,-4.675 -4.244803,-12.325 -5.400112,-17 -1.155308,-4.675 -3.086193,-11.875 -4.290856,-16 -2.027566,-6.94279 -2.194515,-9.69171 -2.247099,-37 L 49.5,223.5 53.33829,208 C 57.884745,189.64025 58.591444,187.39891 63.743263,175 74.766881,148.46939 85.207057,132.33098 105.57722,110.33309 115.70518,99.395832 130.0186,86.885687 138.95536,81.160087 146.83777,76.109983 177.19181,60.818933 185.5,57.712909 203.16483,51.1089 231.77835,45 245.0461,45 c 11.44183,0 43.05877,3.543598 53.59245,6.006593 12.62188,2.951261 41.84697,13.661549 52.20297,19.131126 14.30351,7.554472 32.18678,19.852093 45.53785,31.314581 6.50381,5.58381 21.58856,23.8805 31.78074,38.5477 7.65572,11.01706 14.34079,23.93557 18.62929,36 1.66181,4.675 3.89897,10.525 4.97147,13 1.0725,2.475 2.49443,7.63055 3.15984,11.45678 0.66542,3.82623 2.53048,12.36494 4.14457,18.97491 2.77446,11.36185 2.93423,13.16626 2.92566,33.04322 -0.008,18.89991 -0.26453,22.13695 -2.53648,32.02509 -1.39008,6.05 -3.19833,14.6 -4.01832,19 -1.5359,8.24154 -7.25797,24.44221 -12.36198,35 -1.59534,3.3 -4.23492,8.74835 -5.86574,12.10745 -7.25591,14.94541 -22.15103,34.32771 -38.19611,49.70273 -18.39672,17.62846 -28.51098,24.59003 -52.93329,36.43356 -24.6813,11.96914 -29.95034,13.84505 -52.52532,18.70026 -14.58271,3.13631 -18.09911,3.54219 -29.79392,3.43902 -7.29288,-0.0643 -20.57523,-0.92767 -29.51633,-1.91854 z m 50.27201,-32.05945 c 5.89794,-1.15224 13.25725,-2.98652 16.35403,-4.07618 3.09678,-1.08967 9.90551,-3.10684 15.13051,-4.48261 10.98796,-2.89318 17.48867,-6.17177 38,-19.165 19.68855,-12.47203 41.24149,-36.15436 56.33667,-61.90265 8.84403,-15.08551 17.2574,-43.54247 19.74325,-66.77859 3.85051,-35.99205 -6.92119,-80.89077 -26.39022,-110 C 390.71146,139.09551 369.16369,116.92832 354.44025,107.8348 333.96101,95.186379 321.81565,89.154244 312.5,87.004691 307.55,85.862496 301.025,83.99723 298,82.859655 c -8.73331,-3.284231 -19.197,-4.78607 -38,-5.454086 -15.15348,-0.538359 -19.11925,-0.339859 -29.57609,1.480382 -6.64185,1.156158 -14.72913,3.014883 -17.97173,4.1305 -3.24259,1.115617 -9.95835,2.975602 -14.9239,4.1333 -10.70343,2.495458 -13.99901,4.078437 -33.32264,16.005979 -16.22593,10.01549 -20.44176,13.16166 -30.56293,22.80841 -33.979646,32.3869 -53.998623,78.29042 -53.875198,123.53586 0.06544,23.98924 2.800018,40.29194 10.86535,64.77583 6.43172,19.52473 25.503278,48.16061 43.112748,64.73362 15.46267,14.55257 45.44883,33.43574 58.77534,37.01256 4.38848,1.17786 12.02905,3.41022 16.97905,4.9608 4.95,1.55057 12.375,3.31234 16.5,3.91505 4.125,0.60271 8.625,1.26097 10,1.46281 1.375,0.20183 10.44069,0.42825 20.14597,0.50315 14.2436,0.10992 19.71361,-0.26776 28.36949,-1.95879 z M 192.79861,294.23495 C 153.09805,254.56706 152,253.36561 152,249.59449 c 0,-7.98292 7.88188,-18.36341 15.55117,-20.48101 7.34691,-2.02858 9.3387,-0.53687 37.01731,27.72324 14.03421,14.32906 27.01318,26.97768 28.84216,28.10806 1.82899,1.13037 4.88847,2.05522 6.79886,2.05522 3.25467,0 6.71132,-3.24608 54.88197,-51.53866 28.27469,-28.34627 52.62368,-52.19627 54.10887,-53 3.97573,-2.15154 8.56809,-1.78709 13.43715,1.06637 7.93364,4.64942 13.58791,14.45378 11.99525,20.79945 -0.603,2.40252 -124.90249,127.13949 -128.91667,129.37038 -1.21884,0.67737 -4.4442,1.24754 -7.16746,1.26702 l -4.9514,0.0354 -40.7986,-40.76505 z"
       id="path3484"
       inkscape:connector-curvature="0" />
    <path
       style="fill:#e4f7ed"
       d="m 235,456.95484 c -21.69844,-2.38183 -23.78704,-2.84003 -43.06153,-9.44686 -20.54592,-7.04264 -35.42139,-14.1112 -49.49508,-23.51919 C 114.55515,405.34606 103.199,393.99759 82.058524,363.64475 70.845405,347.5453 61.300884,326.67102 57.072844,309 56.08588,304.875 53.997603,297 52.432228,291.5 49.605398,281.56783 49.5858,281.30329 49.543046,252.5 L 49.5,223.5 54.232577,205 C 58.859116,186.91451 64.626585,171.62025 73.359429,154.27914 85.444274,130.28184 114.29696,97.993376 137.5,82.500698 c 10.13081,-6.764344 41.28511,-22.345118 52.68447,-26.348367 12.65825,-4.445345 39.85308,-10.317432 50.52441,-10.909563 13.13974,-0.729097 49.11,3.252893 62.29112,6.89577 13.39309,3.701459 40.28878,13.931845 49,18.638265 17.4792,9.443507 39.08541,25.199173 50.26728,36.655877 6.50177,6.66158 20.42992,24.58147 28.77137,37.01713 5.10081,7.60443 15.96135,29.61882 15.96135,32.35378 0,0.71832 1.37715,4.54229 3.06033,8.49771 1.68318,3.95542 4.39405,13.60505 6.02416,21.44363 1.6301,7.83857 3.48698,15.49015 4.12638,17.00351 1.96196,4.6436 2.26393,46.28105 0.39709,54.75156 -0.84852,3.85 -2.9344,13.70568 -4.63529,21.90151 -1.70089,8.19583 -4.12913,16.97083 -5.39608,19.5 -1.26696,2.52917 -2.86895,6.39849 -3.55999,8.59849 -2.00447,6.38143 -11.87051,26.36783 -16.76721,33.96663 -10.69792,16.60127 -21.92947,29.68018 -37.11412,43.21863 -16.55327,14.75868 -24.31796,19.8967 -46.13527,30.52842 -23.94857,11.67029 -31.62098,14.39221 -54.17175,19.21836 -19.66362,4.20826 -30.71317,4.49923 -57.82825,1.5228 z m 50.11076,-32.01345 c 5.71408,-1.13223 12.12107,-2.72133 14.23776,-3.53132 2.11668,-0.80999 8.85364,-2.83362 14.97102,-4.49695 6.11738,-1.66334 14.28555,-4.7134 18.15148,-6.77791 13.20883,-7.05389 28.04225,-16.62728 33.52898,-21.63937 1.925,-1.75848 4.41499,-3.82692 5.53332,-4.59654 5.63972,-3.88118 22.34226,-23.34938 30.47759,-35.52417 11.01729,-16.48773 12.79246,-19.93831 18.00508,-34.99826 10.09351,-29.16148 13.08636,-55.23681 9.48934,-82.67641 C 426.70295,209.3227 418.62562,183.75614 409.79718,168.31971 397.11844,146.15111 374.90777,121.3434 357.3076,109.69266 340.33755,98.459022 320.77474,88.371666 313.20601,86.952134 309.5177,86.260383 303.35,84.609862 299.5,83.284308 287.98162,79.318534 279.44461,78.020725 260.43454,77.34552 c -16.10436,-0.571999 -19.46955,-0.395775 -31,1.623369 -7.11399,1.245763 -14.95954,3.04728 -17.43454,4.003371 -2.475,0.956092 -8.775,2.768467 -14,4.0275 -11.11508,2.678328 -14.53014,4.288986 -33.39545,15.75043 -16.05324,9.753 -19.78714,12.57022 -31.47313,23.74635 -25.76486,24.64074 -42.904129,55.51371 -49.96583,90.00346 -3.638458,17.77044 -4.392303,28.95208 -3.155384,46.80321 1.386145,20.00472 5.051532,36.51709 12.696447,57.19679 2.725098,7.37147 15.506617,28.84617 23.212387,39 7.4889,9.86807 27.12259,28.67466 36.19367,34.66897 19.48105,12.87338 32.52731,19.94364 40.53605,21.96803 4.31818,1.09151 12.12624,3.34175 17.35124,5.00052 13.71423,4.35384 24.01686,5.65618 45.61076,5.76562 15.54643,0.0788 21.04844,-0.28709 29.5,-1.96175 z M 230.3398,331.11042 c -9.57067,-7.69163 -77.17969,-76.62431 -77.87669,-79.40137 -1.42106,-5.66197 3.18782,-14.99485 9.75379,-19.75121 4.84663,-3.51088 11.68232,-4.0287 15.85756,-1.20125 1.41596,0.95888 14.01596,13.39919 28,27.64515 26.88392,27.38743 31.03207,30.64886 36.39052,28.61158 1.45141,-0.55183 25.68689,-24.1523 53.85662,-52.44549 28.16973,-28.29319 52.47564,-51.92044 54.01314,-52.505 4.63926,-1.76384 8.0831,-1.22132 13.02467,2.05185 7.72493,5.11677 12.79733,14.14035 11.3007,20.10342 -0.60009,2.39096 -124.90353,127.23725 -128.88495,129.44781 -1.25134,0.69477 -4.14725,1.27917 -6.43536,1.29865 -3.36687,0.0287 -5.08314,-0.70629 -9,-3.85414 z"
       id="path3482"
       inkscape:connector-curvature="0" />
    <path
       style="fill:#d9f4e4"
       d="m 240,457.43067 c -25.74902,-2.97127 -28.65033,-3.56578 -46.5,-9.52843 -21.44891,-7.16498 -36.09264,-14.02743 -51,-23.89999 C 115.53382,406.1436 104.70842,395.51952 84.705762,367.28288 71.054551,348.01222 61.964852,328.13006 55.774176,304 54.151469,297.675 52.081142,289.8 51.173449,286.5 49.818521,281.57404 49.523211,275.39832 49.523726,252 l 6.29e-4,-28.5 4.630325,-18.13542 c 2.546678,-9.97448 5.866539,-20.99948 7.377467,-24.5 C 68.149188,165.53421 75.627558,150.01039 79.291116,144 89.966105,126.48673 114.67107,99.427728 131.80973,86.477102 144.0049,77.261969 181.5695,58.510119 196.5,54.18441 c 16.83654,-4.877935 39.50769,-9.18562 48.29149,-9.175737 11.01394,0.01239 48.2779,4.544074 57.58002,7.002324 12.25,3.237283 40.32451,13.760625 48.62849,18.227723 17.80457,9.577903 40.3231,26.001736 51.35363,37.45464 6.88101,7.1445 19.90497,23.80595 27.91487,35.71126 5.85967,8.70939 13.1396,23.11723 15.71172,31.09538 0.70928,2.2 2.74867,7.6 4.53198,12 1.78332,4.4 3.79439,11.15 4.46905,15 0.67466,3.85 2.4166,11.5 3.87099,17 2.51474,9.50991 2.64442,11.20073 2.64605,34.5 0.002,22.24222 -0.20326,25.24328 -2.22251,32.56563 -1.22332,4.4361 -3.16671,12.94951 -4.31864,18.91871 -1.15194,5.96919 -3.12711,12.91466 -4.38927,15.43437 -1.26216,2.51971 -2.86023,6.38129 -3.55127,8.58129 -0.69104,2.2 -3.72596,9.175 -6.74426,15.5 -12.37616,25.93485 -31.11766,49.08646 -56.40895,69.68267 -12.41927,10.11375 -18.79446,13.92795 -40.5629,24.26824 -22.69204,10.77903 -29.78233,13.18297 -52.91468,17.94057 -17.12393,3.52186 -29.83816,3.91026 -50.38581,1.53919 z m 45.54409,-32.53123 c 5.91368,-1.15531 13.49799,-3.11863 16.85403,-4.36294 3.35603,-1.2443 9.47688,-3.06361 13.60188,-4.04292 7.24006,-1.71883 18.66245,-6.74073 24.15605,-10.62028 1.46083,-1.03163 5.33931,-3.39236 8.61885,-5.24607 18.37284,-10.38494 38.33082,-29.94601 53.0911,-52.03525 11.5863,-17.33926 13.828,-21.84738 19.43886,-39.09198 7.5513,-23.20842 9.18317,-33.4837 9.13189,-57.5 -0.039,-18.26989 -0.33231,-21.85982 -2.69612,-33 -3.16483,-14.91526 -10.49533,-36.82839 -15.52161,-46.39884 -10.77869,-20.52353 -31.47797,-45.44973 -48.83093,-58.80253 -3.35482,-2.58148 -14.00524,-9.22194 -23.6676,-14.756587 C 325.6405,90.976952 320.69802,88.663568 314.82629,87.390015 310.79683,86.516043 302.775,84.314887 297,82.498557 c -24.66681,-7.758107 -61.71263,-7.337999 -87,0.9866 -4.125,1.35795 -10.60085,3.178834 -14.39077,4.04641 -8.59221,1.966898 -13.05527,4.193547 -33.19564,16.561503 -12.70985,7.80496 -18.33419,12.00856 -26.79513,20.02653 -33.11217,31.37862 -50.524576,66.5238 -55.677982,112.3804 -2.16201,19.23824 1.097406,47.5187 8.12536,70.5 5.556088,18.16833 15.530332,36.58313 29.607022,54.6615 8.48799,10.90094 24.96859,26.43897 34.82714,32.83529 23.76372,15.41812 32.12878,19.71433 45.10489,23.16537 6.87668,1.82888 13.26626,3.72917 14.19908,4.22286 1.63924,0.86756 14.56118,3.63131 20.69603,4.42647 1.65,0.21387 11.84069,0.45627 22.64597,0.53868 16.31366,0.12442 21.46974,-0.20646 30.39812,-1.95073 z M 230.3398,331.11868 c -9.17787,-7.36026 -77.22395,-76.8089 -77.90106,-79.50674 -1.3969,-5.56569 3.26491,-14.93593 9.77816,-19.6541 4.84812,-3.51196 11.70102,-4.03235 15.81894,-1.20125 1.39472,0.95888 13.99472,13.37847 28,27.5991 14.42553,14.64734 27.13994,26.71127 29.32989,27.82936 2.50467,1.27878 4.7932,1.75226 6.5,1.34481 1.71626,-0.40972 20.58385,-18.70943 54.14131,-52.51174 28.32887,-28.53558 52.77067,-52.36331 54.3151,-52.9505 4.74353,-1.80349 8.12117,-1.21312 13.03102,2.27766 5.01144,3.563 8.70128,7.95773 10.66812,12.70609 2.79336,6.74378 3.02418,6.46627 -45.72673,54.97623 -25.13406,25.00982 -53.36994,53.30293 -62.74642,62.87358 -9.37647,9.57065 -18.49618,18.00815 -20.26601,18.75 -5.71656,2.39618 -9.62187,1.73429 -14.94232,-2.5325 z"
       id="path3480"
       inkscape:connector-curvature="0" />
    <path
       style="fill:#c8f0d9"
       d="M 240.5,457.47847 C 215.65188,454.64858 211.19481,453.78568 197,449.05675 170.58427,440.25648 160.50319,435.67841 144.5,425.21518 115.77054,406.43124 104.25349,395.20559 84.260722,366.5 71.941809,348.81252 60.394194,324.15511 57.098029,308.5 c -0.694811,-3.3 -2.301977,-9.375 -3.57148,-13.5 -3.810286,-12.38078 -4.775316,-23.29815 -4.28711,-48.5 0.436335,-22.52414 0.521894,-23.3 4.135321,-37.5 2.029373,-7.975 4.081628,-16.075 4.560567,-18 C 60.43484,180.95371 75.204134,150.05297 83.096633,138.3568 96.184417,118.96154 120.24844,94.138591 136.7699,82.99079 146.96652,76.110652 179.6928,59.822183 190.72304,56.13732 207.04641,50.684189 234.25904,45 244.04214,45 c 6.37814,0 24.52463,1.734578 42.45786,4.058442 19.3619,2.508998 53.58479,14.704557 72.20155,25.729509 24.44047,14.473785 42.70329,30.109069 57.48223,49.212049 16.15127,20.87683 23.77226,34.13362 31.33066,54.5 5.6534,15.23329 6.36169,17.60057 9.12556,30.5 1.47305,6.875 3.27229,15.2 3.9983,18.5 2.16051,9.82036 1.7764,41.93929 -0.63383,53 -1.07865,4.95 -3.09618,14.55018 -4.48341,21.33372 -1.38723,6.78355 -3.82174,15.33355 -5.41003,19 -1.58829,3.66646 -3.22499,7.79128 -3.63712,9.16628 -1.9957,6.65834 -12.60304,26.71694 -19.56624,37 -10.07295,14.87543 -21.2443,27.58053 -34.45946,39.19052 -17.07133,14.99777 -25.88632,20.71066 -48.39317,31.36309 -24.49215,11.59205 -26.38039,12.27171 -47.2824,17.01879 -13.79735,3.13354 -18.40223,3.73959 -30.27264,3.98421 -7.7,0.15868 -19.4,-0.32648 -26,-1.07814 z m 46.75343,-32.86357 c 6.19344,-1.3118 12.93272,-3.08367 14.97618,-3.93748 2.04346,-0.85381 7.66525,-2.53306 12.49288,-3.73166 9.41952,-2.33868 17.20324,-5.77712 26.77546,-11.82801 3.30113,-2.08674 8.62601,-5.3294 11.83308,-7.20591 7.78808,-4.55694 17.14069,-12.45948 27.8785,-23.55609 10.1304,-10.4689 12.79437,-13.82282 22.52256,-28.35575 8.20006,-12.25006 11.13218,-17.84706 15.2999,-29.2053 13.57407,-36.99326 15.58047,-73.56471 5.99593,-109.29019 -3.61868,-13.48829 -7.91491,-25.34431 -12.44017,-34.33027 -10.85289,-21.55095 -35.30298,-50.09486 -54.09404,-63.15131 -2.20347,-1.53101 -11.295,-6.88167 -20.20341,-11.890342 C 324.14914,90.181849 320.75974,88.710834 311.58807,86.543705 305.81026,85.178493 299.37679,83.338043 297.29148,82.453817 290.06297,79.388745 279.41282,77.931869 260,77.352573 c -17.28338,-0.515752 -20.83608,-0.336326 -31.25372,1.578437 -6.46455,1.188185 -13.66455,2.834997 -16,3.659583 C 210.41082,83.415179 204,85.227289 198.5,86.617504 c -11.86479,2.99902 -16.52879,5.264173 -36.7204,17.833926 -47.37165,29.48994 -75.291595,74.3448 -81.837227,131.47578 -1.807922,15.77973 0.142765,40.31183 4.633861,58.27605 5.558757,22.23483 9.292344,31.24184 19.966056,48.1667 12.01765,19.05587 15.75856,23.77676 28.77813,36.31685 11.84196,11.40585 15.9927,14.40624 37.51966,27.12134 12.79535,7.5577 16.65979,9.33668 24.42982,11.24618 5.07656,1.24757 12.28431,3.32951 16.01723,4.62653 11.13561,3.8691 21.56994,5.10752 43.95919,5.21736 18.2941,0.0898 22.07734,-0.18014 32.00711,-2.28332 z m -58.44652,-95.00807 c -12.0094,-10.26949 -75.72916,-75.44888 -76.40958,-78.15989 -1.51233,-6.02558 4.63345,-16.89151 11.54943,-20.41978 4.58179,-2.33745 9.44849,-2.59138 13.10392,-0.68371 1.40287,0.73212 14.37296,13.29354 28.82241,27.91426 14.52873,14.70094 27.84169,27.32812 29.78408,28.24985 2.10904,1.0008 4.5772,1.42335 6.17758,1.0576 1.78069,-0.40696 19.92328,-17.98469 54.66525,-52.96329 54.79396,-55.16717 54.24692,-54.69491 61.50836,-53.10003 4.27237,0.93837 13.43783,9.65679 15.45694,14.70304 1.00849,2.52047 1.44919,5.43741 1.1015,7.29075 -0.4567,2.43439 -13.93291,16.39548 -63.56473,65.85178 -34.64184,34.51933 -64.22647,63.40994 -65.74362,64.20135 -5.56593,2.90342 -9.56775,1.94455 -16.45154,-3.94193 z"
       id="path3478"
       inkscape:connector-curvature="0" />
    <path
       style="fill:#bcedd1"
       d="m 237,456.94252 c -23.58543,-2.60658 -26.39832,-3.22116 -45.93144,-10.03535 -23.27975,-8.12121 -32.80924,-12.70913 -49.56217,-23.8614 C 113.3472,404.30045 102.04406,392.8178 80.920447,361.49764 70.256656,345.68635 60.794087,324.12867 56.121263,305 54.979237,300.325 53.367376,294.06879 52.53935,291.09732 49.666294,280.78699 48.80209,269.27086 49.210103,246.73276 L 49.612588,224.5 53.935497,207 c 7.875388,-31.88114 21.52144,-60.39971 39.476003,-82.5 13.17998,-16.22324 35.19476,-36.748874 47.37906,-44.174185 10.81582,-6.591336 42.7269,-21.941734 51.25083,-24.653525 13.83084,-4.400127 38.76123,-9.712446 48.45861,-10.325856 11.97558,-0.757519 50.98425,3.699576 63.09524,7.209204 13.13506,3.806392 37.00284,12.708845 45.40476,16.935538 17.86031,8.984861 41.79563,26.294163 53.56376,38.735704 14.57561,15.40966 31.71498,39.70536 38.28691,54.27312 9.34476,20.71419 12.09961,29.75319 19.20076,63 2.52227,11.80901 2.72654,42.35185 0.35446,53 -0.85766,3.85 -2.85781,13.25538 -4.44478,20.90085 -5.53652,26.67305 -18.64817,54.47493 -37.28311,79.05491 -10.74862,14.17772 -33.48422,35.33136 -49.84031,46.37241 -6.6639,4.4984 -45.69857,22.753 -53.64586,25.08752 -3.68051,1.08115 -14.19412,3.56741 -23.36358,5.52502 -19.56712,4.17743 -28.42325,4.42001 -54.82825,1.50181 z m 48.63992,-31.93699 c 5.42304,-1.09696 12.33508,-2.86905 15.36008,-3.93799 3.025,-1.06893 9.17551,-2.87156 13.6678,-4.00583 10.40466,-2.62711 15.45808,-4.81425 25.082,-10.8556 4.26261,-2.67582 10.37416,-6.40435 13.58123,-8.28562 19.35207,-11.35195 45.97091,-41.06477 59.04435,-65.90723 5.59979,-10.64084 12.75257,-31.92564 15.79886,-47.01326 1.99044,-9.85824 2.32193,-14.498 2.32193,-32.5 0,-24.55469 -1.66953,-35.08839 -9.08061,-57.29328 -7.21043,-21.60366 -15.85623,-36.68615 -32.29595,-56.33981 C 373.95376,120.73616 363.66794,112.44551 339.00758,98.475285 325.13264,90.615058 320.88787,88.704367 313.43555,86.964605 308.521,85.817291 302.025,83.96584 299,82.850271 c -9.72068,-3.584824 -19.07432,-4.927746 -38.5,-5.527525 -21.03721,-0.649537 -33.35232,0.699195 -47.5,5.202128 -4.125,1.312907 -11.325,3.337295 -16,4.498639 -10.18625,2.530423 -15.07281,4.899981 -33.7511,16.366347 -16.20301,9.94681 -28.83771,20.34055 -39.44443,32.44834 -25.761634,29.40742 -39.636251,61.11782 -43.955519,100.46021 -1.547418,14.09478 0.206348,39.51085 3.770723,54.64638 5.09237,21.62393 9.915112,33.91247 19.245236,49.03765 11.46782,18.59063 14.39763,22.31594 29.11808,37.02423 12.50278,12.49245 18.45665,16.91326 40.01701,29.71307 12.2156,7.25208 13.64354,7.88485 24.08081,10.67114 5.18055,1.38298 13.16641,3.65608 17.74635,5.05135 11.9262,3.63327 18.09592,4.2955 41.31276,4.43434 17.01033,0.10172 22.37385,-0.2273 30.5,-1.87104 z m -57.85797,-96.39546 c -11.82876,-10.37976 -73.82395,-73.59034 -74.8676,-76.33535 -3.25374,-8.55798 8.30742,-23.34174 18.17351,-23.23928 1.87668,0.0195 4.53714,0.65614 5.91214,1.41478 1.375,0.75864 14.875,13.75058 30,28.87099 29.34519,29.33627 30.77229,30.39926 36.69807,27.33492 1.56423,-0.80889 25.80916,-24.65055 53.87762,-52.98146 44.94948,-45.36977 51.48169,-51.59481 54.79249,-52.21592 10.42684,-1.95608 25.4895,14.228 21.71751,23.33438 -1.3452,3.24761 -125.04114,126.77913 -129.03483,128.86333 -1.40297,0.73217 -4.22398,1.33399 -6.26891,1.33738 -3.14715,0.005 -4.83617,-0.97499 -11,-6.38377 z"
       id="path3476"
       inkscape:connector-curvature="0" />
    <path
       style="fill:#b4ebcc"
       d="M 237,456.98233 C 213.33718,454.31277 210.56256,453.70542 191.06856,446.92816 168.85734,439.20625 156.97727,433.42972 140,422.09674 115.8744,405.99197 104.29134,394.54317 85.774712,368.5 71.653307,348.63859 62.861423,330.29109 57.502678,309.5 56.226854,304.55 53.932607,296 52.404353,290.5 49.68558,280.71547 49.624354,279.90745 49.562854,253 L 49.5,225.5 l 4.370048,-18 C 61.8997,174.42629 76.334508,144.81669 95.5872,121.92712 104.30818,111.55872 122.55157,93.81272 131.5,86.993433 141.87808,79.084663 174.50289,61.91325 188.31998,57.087383 204.88176,51.302884 233.99299,45 244.14817,45 c 6.83935,0 40.60299,3.51955 48.85183,5.092356 13.17971,2.512974 43.20995,12.970086 56.5792,19.701971 17.36507,8.743917 41.32753,26.094018 52.94483,38.334883 7.17648,7.56167 24.44384,29.98105 30.70842,39.87079 7.88054,12.44084 17.98443,37.76962 21.34165,53.5 1.2912,6.05 3.37775,15.05 4.63677,20 2.06261,8.10941 2.28697,11.27594 2.2673,32 -0.0179,18.85841 -0.33849,24.12748 -1.78032,29.26135 -0.96717,3.44375 -2.87577,11.76875 -4.24134,18.5 -5.0274,24.78145 -18.53269,53.12769 -36.77851,77.19441 -10.75503,14.18617 -33.4813,35.32867 -49.86266,46.38778 -5.64931,3.81387 -42.80612,21.45835 -51.00388,24.21998 -3.21369,1.08261 -13.14845,3.598 -22.07726,5.58975 -20.2914,4.52641 -34.32446,5.08288 -58.7342,2.32906 z m 49,-32.09115 c 5.225,-1.05709 12.875,-3.01025 17,-4.34035 4.125,-1.3301 11.1,-3.37363 15.5,-4.54119 7.90724,-2.09821 14.26995,-5.13842 24,-11.46762 2.75,-1.78882 7.64605,-4.78006 10.88011,-6.64721 3.23405,-1.86715 7.95905,-5.20531 10.5,-7.41815 2.54094,-2.21283 6.32335,-5.28541 8.40536,-6.82794 10.10767,-7.48865 32.92311,-37.18416 41.20605,-53.63187 4.83756,-9.60613 11.9131,-31.29955 14.68272,-45.01685 1.99044,-9.85824 2.32193,-14.498 2.32193,-32.5 0,-24.56399 -1.65411,-34.98927 -9.12314,-57.5 -7.17614,-21.62802 -15.36576,-35.88008 -32.22235,-56.07525 C 373.84671,120.58971 363.93428,112.5964 338.94758,98.441295 326.67847,91.490779 320.42793,88.562194 315.37555,87.397019 311.594,86.52492 303.775,84.31266 298,82.480885 285.4172,78.489741 273.18789,76.994754 253.28941,77.015186 238.02413,77.03086 222.30625,79.164573 213,82.484502 c -2.475,0.882936 -9,2.736087 -14.5,4.118112 -11.61124,2.917641 -17.95047,5.954405 -36.52909,17.498996 -15.38675,9.56119 -21.38589,14.254 -31.8293,24.89839 -29.39718,29.96291 -45.400579,64.029 -50.29357,107.05886 -1.786515,15.71094 0.247565,41.27851 4.649405,58.44114 5.483306,21.37923 9.4524,31.09631 19.100235,46.76091 10.84497,17.60833 12.84604,20.12448 28.40232,35.7131 8.2911,8.30834 15.53041,14.49411 21.5,18.3711 16.45483,10.68669 30.9354,18.71636 36.5,20.23973 3.025,0.82813 9.775,2.81584 15,4.41712 16.03096,4.91296 22.93599,6.18503 38,7.00053 18.11972,0.98091 30.79095,0.35875 43,-2.11131 z M 227.78195,328.61236 C 216.15575,318.414 153.92477,254.93232 152.89284,252.21816 149.70158,243.8245 161.19095,229 170.88752,229 c 1.76649,0 4.46624,0.6487 5.99945,1.44155 1.53321,0.79285 14.8538,13.60538 29.60133,28.47228 28.42754,28.65766 30.7759,30.46202 36.53918,28.07479 1.60042,-0.66292 25.54626,-24.04189 53.21298,-51.95327 27.66672,-27.91138 51.73347,-51.48763 53.48167,-52.39166 4.1223,-2.13172 6.51577,-2.07313 11.11266,0.27202 8.18512,4.17574 15.1638,14.80711 13.71097,20.8874 -0.43121,1.80468 -21.78709,23.74305 -64.5527,66.31342 C 244.26108,335.54839 244.87457,335 237.40695,335 c -1.45286,0 -5.10968,-2.42685 -9.625,-6.38764 z"
       id="path3474"
       inkscape:connector-curvature="0" />
    <path
       style="fill:#a8e9c4"
       d="m 234,456.54393 c -23.37294,-2.79057 -21.28257,-2.31668 -42.94395,-9.73552 C 167.86566,438.86589 158.39532,434.27225 140.5,422.28589 115.10381,405.27543 104.54193,394.89496 85.774169,368.5 69.59853,345.7506 63.388867,331.71157 54.148709,297 49.506166,279.55983 48.753041,271.87789 49.233665,246.86613 49.66043,224.65724 49.69282,224.38049 53.841058,207.5 58.47147,188.65739 58.216328,189.46229 63.965846,175.55914 75.275833,148.20997 87.592191,129.62233 108.98072,107.62347 123.23525,92.962168 133.75156,84.397399 146,77.473955 161.37488,68.783281 182.3195,59.02035 193.07047,55.532962 206.59173,51.14695 236.3597,45 244.07869,45 c 6.31037,0 38.34493,3.362738 48.42131,5.082891 11.97792,2.044768 43.11167,12.663501 55.57435,18.954643 15.15886,7.652164 37.21996,22.817484 48.85746,33.585756 18.99313,17.5745 43.76644,54.19892 49.36099,72.9744 0.80341,2.69627 2.6498,7.72168 4.10309,11.16758 1.45328,3.4459 3.75357,11.7709 5.11176,18.5 1.35818,6.7291 3.19964,14.70973 4.09213,17.73473 1.17123,3.96978 1.75583,11.20355 2.1012,26 0.43228,18.5192 0.26282,21.51456 -1.75377,31 -8.11209,38.15695 -8.2158,38.49359 -19.25462,62.5 C 428.8918,368.16349 410.49987,391.26799 385,412.46273 371.77212,423.45736 365.34902,427.35239 343.02994,437.91378 319.99486,448.81398 317.4823,449.7035 296,454.56387 c -21.56393,4.87883 -34.31109,5.28593 -62,1.98006 z m 52,-31.56108 c 5.225,-1.03095 11.525,-2.60017 14,-3.48716 2.475,-0.88699 9.36732,-2.94244 15.31627,-4.56768 11.79933,-3.22355 15.84808,-5.02031 25.68373,-11.39798 3.575,-2.31811 9.12599,-5.74819 12.33554,-7.62239 19.72928,-11.52084 44.72451,-39.38938 58.87653,-65.64465 11.46955,-21.27867 18.73288,-52.02006 18.76961,-79.44063 0.0294,-21.93548 -2.89175,-38.64043 -10.72323,-61.32236 -6.04038,-17.49448 -13.32698,-30.40375 -27.09345,-48 C 384.58066,132.52753 367.3244,116.00401 358,109.82818 341.90151,99.165676 322.8796,89.132319 315.4687,87.394493 311.63591,86.495721 303.775,84.280397 298,82.471551 284.93071,78.377985 273.88119,77.006427 253.94289,77.002817 237.84552,76.999902 222.54353,79.053294 213,82.496991 c -2.475,0.893081 -8.98611,2.717046 -14.46913,4.053256 -12.16217,2.963915 -15.78183,4.70518 -35.66709,17.157903 -19.41375,12.15745 -27.09962,18.37881 -37.79209,30.59096 -12.52797,14.30854 -20.3586,25.73264 -27.555624,40.20089 -9.87229,19.84638 -15.120895,37.99712 -17.647096,61.02725 -1.666001,15.1881 0.100477,41.47082 3.761963,55.97275 3.015509,11.94343 9.008026,30.81289 11.115215,35 2.938041,5.83807 17.629532,29.06258 21.166522,33.46033 1.97303,2.45319 8.98733,9.91763 15.58733,16.58766 11.38713,11.50795 21.14499,19.09992 33.4904,26.05676 3.03028,1.70761 9.1096,5.20504 13.5096,7.77207 4.4,2.56703 9.8,5.10748 12,5.64545 2.2,0.53797 9.4,2.54114 16,4.45149 17.98406,5.20542 20.75093,5.70152 36.5,6.54443 18.13716,0.97071 30.80344,0.37117 43,-2.03534 z m -58.21805,-96.35509 c -12.61987,-11.04331 -74.57578,-74.67017 -75.22397,-77.25275 -1.48032,-5.89809 3.99688,-15.6789 11.26703,-20.11989 4.20769,-2.57027 9.05443,-2.88595 12.99812,-0.84658 1.49809,0.77469 14.63825,13.42854 29.20034,28.11967 15.44248,15.57932 27.87413,27.31002 29.83012,28.14817 1.91776,0.82176 4.55844,1.1724 6.16767,0.81895 1.9968,-0.43857 17.6104,-15.52943 53.76083,-51.96091 28.02072,-28.23856 52.33542,-52.06095 54.03267,-52.93863 4.02859,-2.08326 6.44701,-2.01305 11.02003,0.31992 8.1839,4.17512 15.16225,14.80466 13.71267,20.8874 -0.43072,1.80742 -21.74242,23.68269 -64.61762,66.3264 C 244.36391,335.34142 244.74561,335 237.40695,335 c -1.45043,0 -5.11722,-2.42761 -9.625,-6.37224 z"
       id="path3472"
       inkscape:connector-curvature="0" />
    <path
       style="fill:#97e4b8"
       d="M 238,456.98722 C 214.11436,454.28015 210.93389,453.59155 191.30576,446.87764 167.78836,438.83338 158.44525,434.30843 140.5,422.27196 117.34221,406.73926 106.72642,396.86841 92.349216,377.5 70.337851,347.84716 64.441205,335.51667 54.570083,298.5 49.587137,279.81397 48.709848,271.175 49.253114,246.14192 49.704111,225.36048 49.867427,223.92348 53.360656,210 c 5.248088,-20.91809 6.019482,-23.42669 10.59053,-34.44086 11.378178,-27.4163 23.683121,-45.99294 44.898774,-67.78321 14.48203,-14.874259 24.90909,-23.381505 36.9645,-30.158646 16.73953,-9.410399 38.81942,-19.499484 50.27105,-22.970627 14.07048,-4.264955 40.92723,-9.646781 48.13769,-9.646318 9.24553,5.95e-4 49.02597,4.901661 57.23291,7.051261 10.62744,2.78359 38.88792,13.083679 46.6539,17.003932 16.78847,8.474794 42.6543,26.887496 53.53358,38.108118 17.96675,18.53045 38.22983,49.46658 44.14104,67.39116 1.07834,3.26986 3.15542,8.77379 4.61574,12.23097 1.46031,3.45718 3.34743,9.98218 4.19359,14.5 0.84616,4.51782 2.73614,12.71422 4.19997,18.21422 2.50228,9.4018 2.66283,11.34596 2.68378,32.5 0.0216,21.77222 -0.0813,22.95284 -3.17887,36.5 -1.76064,7.7 -3.85898,16.925 -4.66298,20.5 -3.02719,13.46045 -16.1765,42.48183 -25.52554,56.33651 -15.20493,22.53273 -37.56852,44.88035 -59.11032,59.0681 -7.07875,4.66217 -44.43555,22.44674 -52.5,24.99384 -2.75,0.86857 -11.975,3.19103 -20.5,5.16102 -19.71878,4.55669 -33.95701,5.15267 -58,2.42775 z m 48.71622,-32.01404 c 5.38108,-1.09748 11.51561,-2.67951 13.6323,-3.51562 2.11668,-0.83611 8.784,-2.86218 14.81627,-4.50237 6.03226,-1.64019 12.78052,-3.90697 14.99613,-5.03729 7.8856,-4.02293 30.18312,-18.2802 34.90046,-22.31572 2.63739,-2.2562 6.89835,-5.86095 9.46881,-8.01056 10.76035,-8.99865 29.91806,-34.09271 38.77247,-50.78682 4.30572,-8.11801 11.78105,-30.6439 14.70276,-44.3048 2.76146,-12.91161 3.79727,-41.06165 2.03026,-55.17623 -2.64891,-21.15908 -11.65356,-49.14581 -20.72166,-64.4036 C 397.29373,146.6951 378.7245,125.18028 363.2925,113.59837 358.63504,110.10289 347.41633,103.07575 338.36204,97.982491 325.2229,90.591411 320.24441,88.338094 313.69984,86.820118 309.18993,85.774069 301.45,83.629679 296.5,82.054808 c -11.5433,-3.672567 -23.13862,-5.048476 -42.57511,-5.051991 -16.71469,-0.003 -33.56256,2.319258 -42.66378,5.880703 -2.61861,1.024701 -9.10017,2.84601 -14.40348,4.047355 -10.3781,2.350928 -16.34885,5.365487 -38.20864,19.291085 -15.55203,9.90729 -23.88535,16.90667 -34.3143,28.82152 -22.61807,25.84064 -35.31358,51.15408 -41.852679,83.44958 -6.156634,30.40656 -3.882852,60.10905 7.196409,94.00694 4.352375,13.31644 4.554618,13.73173 14.55781,29.89341 9.76712,15.78029 16.56003,24.24331 29.39625,36.6237 10.79529,10.41194 18.31999,16.08093 31.94222,24.06478 17.20996,10.08659 21.60065,12.1219 32.21956,14.93544 5.88816,1.56009 12.61917,3.52478 14.95781,4.36598 15.45498,5.55904 52.96594,6.87249 73.96415,2.58987 z M 226.24148,327.1454 c -12.78722,-11.48986 -72.55489,-72.7658 -73.54263,-75.39852 -2.90788,-7.75065 9.13126,-22.75275 18.25132,-22.74314 3.31187,0.003 9.76639,3.01882 11.16756,5.2171 1.80807,2.83668 50.79579,51.15691 53.08261,52.35932 6.63746,3.48998 4.42719,5.35284 60.52485,-51.01153 57.71632,-57.99072 56.1758,-56.72078 64.34006,-53.0392 2.24529,1.01248 6.06809,4.0495 8.4951,6.74892 5.08825,5.65936 6.99752,11.08156 5.41356,15.37419 -1.38804,3.76172 -125.44158,127.10674 -129.69179,128.95109 -6.43927,2.79427 -8.60709,2.01823 -18.04064,-6.45823 z"
       id="path3470"
       inkscape:connector-curvature="0" />
    <path
       style="fill:#8ce2b1"
       d="m 233.59815,456.42039 c -18.88139,-2.23 -22.40964,-2.96277 -36.5,-7.58053 -24.93519,-8.17189 -37.3196,-13.86353 -53.8371,-24.74252 C 119.80093,408.6457 107.34398,397.4009 93.856269,379.5 78.872777,359.61389 68.389866,342.16929 65.011834,331.5 c -0.696547,-2.2 -2.340831,-6.58979 -3.653963,-9.75508 -1.313132,-3.1653 -3.035737,-8.7903 -3.82801,-12.5 -0.792274,-3.70971 -2.546686,-10.40669 -3.898693,-14.8822 -3.793712,-12.55818 -4.912586,-24.68754 -4.431673,-48.04234 0.409916,-19.90695 0.593582,-21.5004 4.186403,-36.32038 5.811324,-23.97106 8.484871,-31.26077 19.621465,-53.5 4.324115,-8.63504 10.145083,-18.21532 15.189973,-25 C 98.36291,117.82872 124.65797,91.388605 135.32159,84.115808 146.33025,76.607678 180.21149,59.666813 191.36317,56.094612 207.86984,50.807053 235.62119,45 244.38325,45 c 8.98097,0 48.37199,4.894925 56.88748,7.069124 10.60614,2.707986 39.39453,13.24005 47.72927,17.461473 14.44845,7.317923 37.00689,23.012662 48.85223,33.988293 13.02042,12.06443 34.95347,42.07833 42.37627,57.98908 8.23797,17.65804 10.99929,26.13374 17.916,54.99203 3.28141,13.69087 3.3555,14.48577 3.3555,36 0,23.704 0.35568,21.20765 -8.40628,59 -2.29278,9.8893 -16.05312,39.89978 -23.84292,52 -14.27726,22.17745 -38.4556,46.60822 -60.2508,60.87985 -7.175,4.69823 -44.60329,22.5455 -52.5,25.03405 -2.75,0.86663 -12.2,3.19781 -21,5.18041 -21.45448,4.83358 -33.44293,5.18724 -61.90185,1.82608 z m 52.72043,-31.36619 c 5.40021,-1.12042 13.05021,-3.12301 17,-4.45021 3.94978,-1.3272 10.78142,-3.39345 15.18142,-4.59166 12.32844,-3.3573 33.26382,-15.37457 47.92944,-27.51233 15.28001,-12.64625 24.44344,-22.92483 36.62752,-41.0849 9.81582,-14.63024 13.21321,-21.5182 18.30414,-37.1103 7.98067,-24.44259 9.07468,-31.41134 9.07468,-57.8048 0,-26.79197 -1.11237,-33.66199 -9.58695,-59.20924 C 412.82562,169.10422 400.12519,149.26109 379,127.90627 365.63565,114.39664 361.23617,111.04662 343.21376,100.65658 324.33485,89.77275 321.47036,88.449368 312.5,86.466987 308.1,85.49462 301.35,83.621731 297.5,82.30501 286.93274,78.690951 273.44795,77.011703 255,77.012526 c -17.17902,7.66e-4 -34.28949,2.156128 -42.5,5.353614 -2.2,0.856764 -8.725,2.734976 -14.5,4.173803 -11.8968,2.96406 -15.62547,4.792321 -36.15349,17.726947 -18.64768,11.74984 -26.80864,18.44384 -37.64844,30.88098 -33.679436,38.64242 -48.481118,82.887 -44.277384,132.35213 1.331181,15.66394 6.663304,38.46062 12.327578,52.70469 3.904113,9.81775 17.303816,31.803 25.619786,42.03507 9.17928,11.29429 25.83809,26.9012 35.16267,32.94236 21.83963,14.14933 32.60926,19.8799 40.96928,21.79992 3.025,0.69474 9.55,2.53683 14.5,4.09354 13.61146,4.28061 17.85252,5.06867 32,5.94614 18.09756,1.12246 34.27325,0.42785 45.81858,-1.96752 z M 225.84522,326.651 c -15.03153,-13.42914 -72.26392,-72.53997 -73.06846,-75.46666 -1.79829,-6.54172 6.56052,-19.00668 14.30068,-21.32569 7.73472,-2.31738 9.00799,-1.3828 38.44108,28.21569 14.83956,14.92294 28.19627,27.76105 29.68158,28.52914 6.65932,3.44366 4.44375,5.31155 60.5402,-51.03975 58.51383,-58.77966 56.42962,-57.09215 64.93815,-52.57838 9.18343,4.8718 15.5438,15.21005 13.30636,21.62838 -1.2074,3.46356 -125.66463,127.27353 -129.76603,129.09117 -6.13069,2.71696 -8.42102,1.83767 -18.37356,-7.0539 z"
       id="path3468"
       inkscape:connector-curvature="0" />
    <path
       style="fill:#85e0ac"
       d="m 234,456.47381 c -21.46972,-2.5298 -26.8689,-3.84368 -50,-12.16737 -16.48825,-5.93327 -29.05357,-12.29297 -43.77599,-22.15636 C 119.19762,408.06329 106.75274,396.61622 93.856269,379.5 83.948997,366.35106 74.763398,352.48132 71.129553,345.18393 66.262905,335.41086 58.830024,315.0019 56.130493,304 54.98339,299.325 53.353297,293.025 52.508064,290 49.775475,280.22035 48.75762,266.56215 49.208217,245.72063 49.632911,226.07723 49.766462,225.00043 53.886568,208 c 2.332648,-9.625 5.166076,-19.75 6.296507,-22.5 1.130431,-2.75 3.110559,-7.78854 4.400285,-11.19674 8.732015,-23.07509 23.03438,-44.64021 43.88143,-66.16446 19.01812,-19.635905 27.45007,-25.702841 55.33683,-39.81584 19.83149,-10.036371 30.03328,-13.728694 50.47081,-18.266854 25.41895,-5.644288 27.25087,-5.735367 54.85813,-2.727417 27.29297,2.973708 35.63206,4.918306 59.86944,13.960998 16.78333,6.26167 22.00258,8.790963 34.89544,16.910621 28.57079,17.993299 42.03299,30.982912 62.80783,60.602992 10.74688,15.32254 16.85733,28.16643 25.30823,53.1967 1.98009,5.86472 6.11496,24.01773 8.65559,38 2.07151,11.40043 1.39831,42.28493 -1.14435,52.5 -0.95832,3.85 -3.00186,12.85 -4.54122,20 -3.10878,14.43975 -6.92103,24.60899 -16.55931,44.17234 -13.14546,26.68208 -32.85666,49.8552 -60.92221,71.62214 -6.88673,5.34117 -14.16577,9.49589 -31,17.6941 -25.07468,12.21128 -28.94265,13.62123 -51,18.59052 -21.39157,4.8193 -33.51098,5.19268 -61.5,1.89471 z m 52.5,-31.40161 c 5.5,-1.13513 11.90087,-2.77353 14.22416,-3.64088 2.32329,-0.86735 8.84829,-2.82868 14.5,-4.35851 10.49516,-2.84088 17.1913,-5.78276 26.19795,-11.5098 2.79284,-1.77587 7.65205,-4.76654 10.79824,-6.64593 11.14688,-6.65864 28.62968,-22.2379 37.99376,-33.85699 7.12133,-8.83625 18.03744,-24.98838 23.01888,-34.06009 4.21487,-7.67573 11.75368,-30.38538 14.77243,-44.5 2.76261,-12.917 3.79755,-41.06479 2.02871,-55.17623 -2.56687,-20.47803 -11.18229,-47.945 -19.78548,-63.07844 -11.45582,-20.15135 -36.2497,-48.10387 -51.8578,-58.46427 -14.76961,-9.803813 -37.00344,-21.427177 -43.56943,-22.77715 -3.47678,-0.714829 -11.14551,-2.792429 -17.04162,-4.61689 -13.64602,-4.222548 -23.16107,-5.390756 -43.75357,-5.371834 -17.06014,0.01568 -32.29752,1.998677 -42.02623,5.469316 -2.475,0.882936 -8.9537,2.734751 -14.39711,4.115143 -11.83614,3.001522 -13.55722,3.838806 -34.10289,16.590555 -19.23117,11.9359 -27.83676,18.90547 -39.11198,31.6764 -40.501559,45.87425 -54.434461,103.1791 -39.348746,161.83809 2.150658,8.36257 5.394704,18.93757 7.20899,23.5 3.904113,9.81775 17.303816,31.803 25.619786,42.03507 9.18019,11.29542 25.83866,26.90164 35.16267,32.9416 16.36148,10.59873 30.51833,18.64364 35.46928,20.15612 6.14762,1.87805 21.60017,6.30571 31,8.88251 14.5889,3.9993 49.59426,4.44455 67,0.85221 z M 233,332.87118 c -5.53324,-3.35369 -79.74686,-78.76665 -80.28517,-81.58262 -1.36479,-7.13944 6.66773,-19.12447 14.36261,-21.42991 7.73472,-2.31738 9.00799,-1.3828 38.44108,28.21569 14.83956,14.92294 28.19627,27.76105 29.68158,28.52914 6.65029,3.439 4.45089,5.29198 60.61215,-51.06548 58.20998,-58.41336 56.09984,-56.69534 64.58834,-52.58612 9.13316,4.42128 15.86361,15.15241 13.57963,21.65155 -1.42037,4.04171 -126.01527,127.50906 -130.26903,129.09013 -4.64622,1.72694 -6.7747,1.56352 -10.71119,-0.82238 z"
       id="path3466"
       inkscape:connector-curvature="0" />
    <path
       style="fill:#81dfa9"
       d="m 252.5,458.31698 c -1.65,-0.21085 -11.29662,-1.28955 -21.43692,-2.39713 C 211.806,453.8165 202.15698,451.31828 178.5,442.3108 158.51092,434.69989 134.60174,420.01321 116.4999,404.22603 103.05005,392.496 79.734812,362.35215 71.567084,346.13321 66.938274,336.94162 58.668804,314.37559 56.127096,304 54.981862,299.325 53.353297,293.025 52.508064,290 49.711632,279.99186 48.737884,266.51295 49.268301,245.15422 49.764188,225.18591 49.916932,223.95205 53.867785,208 c 4.49933,-18.1666 5.146026,-20.18763 10.879417,-34 8.186446,-19.72205 15.931221,-33.09466 28.080166,-48.48498 7.644322,-9.68386 31.216262,-33.042977 39.581722,-39.224369 8.08738,-5.975916 34.77518,-20.318574 49.06688,-26.369712 10.99094,-4.65359 34.56037,-10.849976 51.61187,-13.568727 10.967,-1.748616 11.04754,-1.746526 35.2133,0.913968 27.63407,3.042332 36.20661,5.009138 59.65193,13.686006 21.55466,7.977153 34.23331,14.952476 54.54693,30.009717 16.95462,12.567417 27.36695,23.836737 44.20327,47.841397 10.74688,15.32254 16.85733,28.16643 25.30823,53.1967 1.97466,5.84864 6.09941,23.94799 8.66,38 1.78171,9.77766 1.35956,43.71118 -0.62507,50.24465 -0.62562,2.05956 -2.66301,10.83456 -4.52755,19.5 -6.93946,32.2512 -23.83141,65.04892 -45.71203,88.75535 -21.70313,23.51411 -35.22345,33.68457 -62.66528,47.13898 -25.15653,12.33397 -32.73849,15.00285 -56.20183,19.78328 -16.9227,3.44784 -27.73777,4.26228 -38.43974,2.89472 z m 36.1624,-33.71842 c 6.13931,-1.33893 11.98931,-2.87407 13,-3.41141 1.01068,-0.53734 6.5626,-2.21107 12.3376,-3.71939 10.68287,-2.79016 18.26504,-6.08069 27.40462,-11.89313 2.80246,-1.78226 7.65855,-4.77816 10.7913,-6.65755 26.3637,-15.81601 57.30068,-53.79412 67.22575,-82.52608 8.59529,-24.88241 11.56654,-41.29492 11.56654,-63.891 0,-22.96971 -3.30695,-40.83786 -12.0173,-64.93198 C 411.50508,166.91643 397.45607,146.17535 377.60635,126.5 364.20023,113.21165 358.32198,108.97684 336.23663,96.696411 324.11647,89.957069 319.58509,87.983595 312.92818,86.545285 308.38332,85.563309 300.92289,83.495033 296.34946,81.949116 275.26003,74.820434 232.72011,75.090215 212,82.484046 c -2.475,0.883187 -8.9537,2.735207 -14.39711,4.115599 -11.74601,2.978667 -13.50775,3.827148 -33.59541,16.180065 -17.26795,10.61893 -22.0978,14.31036 -33.03536,25.24872 -28.26218,28.26426 -44.48593,60.80201 -50.409747,101.09991 -3.981058,27.0819 0.684583,63.43294 11.68961,91.07635 3.28345,8.24766 17.625827,32.19862 24.429157,40.79531 9.44865,11.93931 25.89249,27.40387 36.43491,34.26511 22.21778,14.45981 32.00041,19.54332 42.8217,22.25214 5.74076,1.43704 11.85942,3.20681 13.59701,3.93283 15.76333,6.58634 56.01965,8.18814 79.12764,3.14848 z m -55.45901,-91.61594 c -4.99056,-3.0427 -78.25223,-77.03056 -79.76369,-80.55433 -1.0082,-2.35049 -1.06628,-4.06162 -0.24739,-7.28781 1.45087,-5.71599 8.74248,-13.74105 13.88513,-15.28183 7.77989,-2.33091 9.15221,-1.33097 37.49834,27.323 14.25832,14.41318 27.44952,27.2436 29.31377,28.51206 7.47942,5.08909 4.30845,7.65709 61.93937,-50.16144 58.20701,-58.3965 56.10053,-56.6812 64.57167,-52.58039 9.14035,4.42476 15.87089,15.16308 13.57072,21.65155 -1.43554,4.04947 -126.01862,127.51427 -130.25936,129.09013 -4.60588,1.71154 -6.77606,1.56472 -10.50856,-0.71094 z"
       id="path3464"
       inkscape:connector-curvature="0" />
    <path
       style="fill:#78dda3"
       d="m 252.5,458.38443 c -1.65,-0.24794 -11.29662,-1.357 -21.43692,-2.46458 -19.24065,-2.10155 -28.97445,-4.62007 -52.45231,-13.57145 -19.37966,-7.38887 -43.61381,-22.1603 -61.33973,-37.38837 -18.864861,-16.20652 -45.475289,-53.68568 -51.787962,-72.94016 -0.988177,-3.01407 -2.848992,-7.85958 -4.135144,-10.7678 -1.286152,-2.90822 -3.208032,-9.21716 -4.270845,-14.01987 -1.062813,-4.80271 -2.627553,-10.66616 -3.477202,-13.02988 -3.409412,-9.485 -4.857178,-25.60005 -4.330464,-48.20232 0.489553,-21.00766 0.594731,-21.87784 4.592976,-38 4.505831,-18.1689 5.153067,-20.19077 10.884023,-34 11.04183,-26.60625 22.591884,-43.93376 44.235848,-66.36309 C 127.53493,88.411053 137.96231,81.051023 166.47178,67.058684 186.11866,57.416072 192.24371,55.209191 212,50.65467 c 27.2857,-6.290313 29.21827,-6.404737 56.67361,-3.355521 27.3203,3.034218 35.96954,5.026281 59.27946,13.653037 21.55466,7.977153 34.23331,14.952476 54.54693,30.009717 12.31173,9.125927 20.16757,16.593137 28.73979,27.318017 18.62825,23.30619 28.43965,39.40676 34.56421,56.72008 1.65378,4.675 3.90257,10.56552 4.99733,13.09003 1.09475,2.52452 2.52187,7.24952 3.17138,10.5 0.6495,3.25049 2.59478,11.75997 4.32284,18.90997 3.02563,12.51881 3.14308,13.81432 3.17319,35 0.0292,20.54944 -0.14616,22.72528 -2.65954,33 -1.47995,6.05 -3.46075,15.05 -4.4018,20 -0.94104,4.95 -2.70546,11.025 -3.92092,13.5 -1.21546,2.475 -3.00919,6.94041 -3.98607,9.92313 -3.02565,9.23824 -14.66734,31.06897 -22.43837,42.07687 -8.84173,12.52459 -33.22241,37.33869 -46.56204,47.38979 -6.27238,4.7261 -15.2129,9.82809 -29.5,16.83445 -25.94368,12.72274 -29.68721,14.11153 -51,18.92021 -17.14083,3.86738 -35.40129,5.60725 -44.5,4.23998 z m 26.57378,-31.99845 c 5.18442,-0.8877 12.35122,-2.42854 15.92622,-3.42408 34.48447,-9.60299 34.70667,-9.69852 60,-25.79724 25.19182,-16.03411 54.62295,-52.80303 64.30309,-80.33519 8.54003,-24.28946 11.75573,-41.88638 11.75573,-64.32947 0,-23.06372 -3.97698,-43.84993 -12.83658,-67.09205 -7.47511,-19.61007 -21.43727,-39.86993 -40.61927,-58.94079 C 364.23556,113.1772 358.6602,109.16213 336.34578,96.755986 324.08813,89.941097 319.60253,87.987365 312.87807,86.53446 308.30565,85.54653 300.95005,83.488413 296.53229,81.960866 275.9098,74.830147 232.69947,75.097581 212,82.484046 c -2.475,0.883187 -8.94841,2.733867 -14.38536,4.112622 -11.65299,2.955079 -14.97881,4.557233 -34.33899,16.542212 -17.04644,10.55266 -21.61577,14.13168 -33.64311,26.35164 -36.922658,37.514 -54.400962,86.21996 -49.707468,138.51744 1.334574,14.87057 6.665099,37.85567 11.950874,51.53191 3.151712,8.15463 17.159604,31.93127 23.277444,39.51054 12.02708,14.90011 26.73276,28.91145 38.11745,36.31771 22.08649,14.36828 31.86758,19.44581 42.66691,22.14913 5.74076,1.43704 11.85942,3.20681 13.59701,3.93283 13.19881,5.51481 50.63797,8.17226 69.53902,4.9359 z m -45.03494,-92.81961 c -4.18137,-2.31525 -79.21194,-77.87417 -80.63047,-81.19826 -3.09537,-7.25347 6.03881,-21.23577 14.96679,-22.91067 6.97405,-1.30834 9.06428,0.29313 36.24781,27.7719 14.23236,14.38694 27.40233,27.19591 29.26658,28.46437 7.47133,5.08359 4.33858,7.61693 61.70006,-49.89451 33.26943,-33.35641 53.31083,-52.7241 55.46963,-53.60498 5.05173,-2.06132 10.10676,-0.16558 16.37507,6.14099 5.91141,5.94749 8.1876,11.61765 6.53237,16.27261 -1.4396,4.04855 -126.02191,127.51332 -130.25416,129.08574 -4.21528,1.56611 -6.67393,1.53379 -9.67368,-0.12719 z"
       id="path3462"
       inkscape:connector-curvature="0" />
    <path
       style="fill:#68d998"
       d="M 243.5,457.45703 C 213.75494,453.92381 209.31132,453.04209 192.7907,447.39509 171.47197,440.10803 155.48668,432.35427 139.5,421.54613 114.72998,404.79981 104.37029,394.43636 85.151353,367.17771 74.179797,351.61651 69.822479,343.84123 65.717744,332.5 c -1.393432,-3.85 -3.4162,-9.03771 -4.49504,-11.52825 -1.078839,-2.49054 -2.713124,-7.83278 -3.631744,-11.87165 -0.91862,-4.03886 -2.744313,-11.04986 -4.057096,-15.58 -3.618212,-12.48569 -4.844039,-26.24463 -4.314781,-48.42996 0.44847,-18.79889 0.635315,-20.27678 4.62598,-36.59014 4.764961,-19.4786 5.330332,-21.24158 11.384475,-35.5 9.212824,-21.69759 17.199793,-34.86316 31.54608,-52 C 106.28396,109.64216 122.93822,93.433726 132.26921,86.456553 146.1028,76.112604 181.34889,58.861687 198.47451,54.0529 212.03716,50.244577 238.55375,45 244.24598,45 c 6.69651,0 47.15984,4.816684 54.06547,6.435858 13.89994,3.25914 43.13408,14.025271 53.68855,19.772019 10.81786,5.890156 32.25516,20.555715 41.1604,28.158404 10.11978,8.639579 25.03747,26.609149 37.80527,45.539529 4.78999,7.10195 12.79876,23.61063 15.56004,32.07432 0.98334,3.01407 2.81624,7.80539 4.0731,10.64737 1.25685,2.84198 2.99462,8.92592 3.86169,13.51987 0.86707,4.59395 2.79472,13.07763 4.28366,18.85263 2.5413,9.85665 2.70755,11.84796 2.71346,32.5 0.006,20.51434 -0.17568,22.74283 -2.68841,33 -1.48208,6.05 -3.45477,15.05 -4.38375,20 -0.92898,4.95 -2.68431,11.025 -3.90074,13.5 -1.21642,2.475 -2.76856,6.3 -3.44919,8.5 -0.68062,2.2 -3.94168,9.60637 -7.2468,16.45859 -10.22129,21.19099 -22.04507,37.24639 -40.91066,55.55221 -18.91448,18.35327 -27.02864,24.0153 -51.77491,36.12837 -24.80048,12.1396 -30.1018,14.06225 -52.25007,18.94976 -19.37985,4.27659 -33.06214,5.04076 -51.35309,2.8681 z m 43.08889,-32.30596 c 5.54889,-1.13222 12.52389,-2.95488 15.5,-4.05035 2.97611,-1.09547 9.23611,-2.95163 13.91111,-4.12482 10.09347,-2.53293 18.81053,-6.96103 39,-19.81124 13.5805,-8.64372 33.34422,-28.23098 44.11119,-43.71733 12.04289,-17.32154 16.61456,-26.01353 21.86623,-41.57361 C 434.71497,271.17093 434.8136,234.32167 421.29292,194 414.80039,174.63781 409.51565,164.83843 395.69452,146.53337 387.36186,135.4974 366.97707,115.35612 358.5,109.78317 343.92816,100.20344 320.91211,88.121088 315.13179,87.016885 312.0343,86.425178 304.55,84.388124 298.5,82.490096 284.44817,78.081707 274.51036,76.814878 254,76.817427 c -16.99935,0.0021 -31.70808,1.985724 -42,5.664097 -2.475,0.884574 -8.94841,2.736389 -14.38536,4.115144 -11.65252,2.95496 -14.97914,4.557437 -34.33436,16.539352 -22.2576,13.77864 -34.05102,24.41371 -49.75045,44.86398 -35.898128,46.76135 -44.239343,111.13453 -22.069993,170.32481 3.668696,9.7951 17.139443,32.40118 26.323563,44.17519 7.71999,9.89699 24.10123,25.17778 34.2166,31.91802 21.73138,14.48041 32.84255,20.32184 43.93775,23.09923 5.74076,1.43704 11.85942,3.20681 13.59701,3.93283 15.01357,6.27307 55.02917,8.19506 77.05413,3.70099 z m -52.35273,-91.4791 C 232.12546,332.49986 209.47554,310.21585 169.75,270.22758 153.38902,253.7584 153,253.26872 153,249.14356 c 0,-2.32278 0.86741,-5.92351 1.92758,-8.00161 2.63758,-5.17009 9.2228,-10.89193 13.44758,-11.68451 7.02733,-1.31833 9.08215,0.26194 36.58852,28.13871 14.38282,14.57651 27.58738,27.37881 29.34346,28.44956 7.26832,4.43178 4.37144,6.80654 61.31115,-50.26069 32.97584,-33.04969 53.3492,-52.73728 55.46963,-53.6025 5.0124,-2.04528 10.08576,-0.13932 16.37752,6.15269 5.57301,5.57323 7.76749,11.00538 6.44001,15.94144 -1.02405,3.8078 -125.71009,127.76151 -130.18151,129.41691 -4.16334,1.54134 -6.68365,1.5356 -9.48778,-0.0216 z"
       id="path3460"
       inkscape:connector-curvature="0" />
    <path
       style="fill:#54d48b"
       d="m 240,457.02772 c -26.04943,-2.96001 -30.40978,-3.87911 -48.47925,-10.2187 -22.55141,-7.91207 -34.26964,-13.59775 -50.72872,-24.61357 C 113.74883,404.09583 103.81678,394.11128 83.399957,364.5 71.735882,347.58315 61.23388,324.98001 57.613229,309 c -0.810002,-3.575 -2.615264,-10.43926 -4.011694,-15.25391 -3.577808,-12.33566 -4.949206,-27.74156 -4.370326,-49.09501 0.458832,-16.92513 0.777977,-19.36682 4.725184,-36.15108 6.0882,-25.88816 18.755942,-55.31546 31.283875,-72.6728 16.515512,-22.88209 39.873702,-45.849442 56.829032,-55.878147 11.28744,-6.67627 40.78142,-20.83442 49.4307,-23.728481 10.1517,-3.396769 27.56141,-7.462445 42.35019,-9.890006 9.53862,-1.565753 10.7918,-1.542682 30.79652,0.566961 32.19562,3.395262 35.88096,4.234281 64.85329,14.764779 20.95204,7.615386 40.49016,19.079977 61.5,36.087022 20.83922,16.868932 47.8046,55.336792 55.53958,79.230802 0.97571,3.01407 2.78539,7.76699 4.02149,10.56204 1.2361,2.79505 2.99378,9.10399 3.90594,14.01987 0.91216,4.91588 2.85019,13.43796 4.30673,18.93796 2.47816,9.35769 2.64914,11.41308 2.66203,32 0.0128,20.4577 -0.17069,22.7361 -2.6174,32.5 -1.44714,5.775 -3.38272,14.55 -4.30129,19.5 -0.91857,4.95 -2.93546,11.925 -4.48199,15.5 -1.54652,3.575 -3.12946,7.625 -3.51764,9 -0.38818,1.375 -3.41303,8.10637 -6.72189,14.95859 -10.1613,21.0427 -22.09643,37.30064 -40.41585,55.05412 -19.45594,18.8549 -29.86839,26.00398 -55.87847,38.3656 -22.9535,10.90894 -28.73455,12.88881 -53.00124,18.15171 -15.98335,3.46643 -29.61614,3.87074 -50.5,1.4977 z m 47.03214,-31.84552 c 5.24268,-1.12599 11.99268,-2.9531 15,-4.06024 3.00732,-1.10715 9.24473,-2.96353 13.8609,-4.12529 11.41304,-2.87234 17.5913,-6.03153 38.77622,-19.82782 17.11727,-11.14731 32.06961,-25.95454 45.16272,-44.72439 11.48529,-16.46495 16.28401,-25.70231 21.52998,-41.44446 10.71509,-32.15395 12.83086,-62.44323 6.53115,-93.5 C 425.44566,205.43439 417.99547,182.93995 413.48584,174 402.52487,152.2708 378.65781,124.08288 360,110.83115 347.84748,102.19982 322.98394,88.918354 316,87.327494 312.425,86.513151 304.74082,84.328712 298.92404,82.473187 285.62264,78.230099 274.76562,76.828374 254.5,76.737701 c -17.50547,-0.07832 -29.49778,1.552044 -42.5,5.777916 -4.125,1.340673 -11.11629,3.291782 -15.5362,4.335797 -9.55318,2.256533 -14.32035,4.581628 -32.91493,16.053616 -16.57657,10.22697 -26.76892,18.27143 -36.57159,28.86468 -18.95194,20.48038 -31.387718,41.32394 -39.326156,65.9144 -12.441731,38.54006 -11.33509,77.83049 3.37469,119.81589 3.793168,10.82665 17.001806,32.71448 28.061336,46.5 9.09194,11.33295 23.02684,24.11265 34.2562,31.41637 20.39366,13.26431 32.31179,19.68573 40.19105,21.65472 4.30376,1.07549 11.45666,3.10514 15.89531,4.51032 11.06581,3.50319 16.27328,4.47374 29.07029,5.41806 17.39745,1.28379 37.61886,0.52661 48.53214,-1.81727 z M 233.5,333.10228 c -1.65,-1.03963 -20.4375,-19.38886 -41.75,-40.77606 L 153,253.4404 l 0,-4.26004 c 0,-2.34302 0.88448,-5.99376 1.96551,-8.11275 2.52919,-4.95763 9.44129,-10.8657 13.63204,-11.65189 6.79799,-1.27531 9.03539,0.4588 36.30879,28.14129 14.33439,14.5494 27.53203,27.34942 29.32809,28.44448 7.33613,4.47287 4.39059,6.88089 61.46695,-50.25012 31.90716,-31.93772 53.47197,-52.77329 55.46963,-53.59386 8.73526,-3.58814 22.82899,8.54747 22.82899,19.65725 0,3.81903 -1.22874,5.12189 -63.46166,67.28984 -69.9697,69.89664 -68.98042,69.07482 -77.03834,63.99768 z"
       id="path3458"
       inkscape:connector-curvature="0" />
    <path
       style="fill:#49d184"
       d="m 255.5,458.55628 c -0.55,-0.23591 -8.65,-1.16556 -18,-2.06589 -21.97389,-2.11591 -27.16605,-3.22812 -46.74768,-10.01376 -22.13994,-7.67219 -33.89069,-13.46028 -51.39026,-25.31344 C 114.982,404.64962 104.83378,394.62001 86.582009,369 72.432824,349.13879 62.681677,329.01904 57.987346,310 c -1.018144,-4.125 -2.957785,-11.325 -4.310313,-16 -3.669406,-12.68327 -5.040276,-28.18116 -4.407527,-49.82774 0.480008,-16.4212 0.913026,-20.11893 3.591841,-30.67226 1.675318,-6.6 3.729799,-15.01336 4.565512,-18.69636 C 60.820988,179.84568 77.221005,146.41111 88.477981,131.5 103.88968,111.0855 126.73947,89.13542 142.04396,80.043189 c 12.05462,-7.161518 42.16898,-21.508119 51.1259,-24.35658 9.49167,-3.018524 31.11122,-7.951309 42.66746,-9.735145 12.88626,-1.989139 55.34429,2.98053 72.82489,8.52408 35.78919,11.349675 55.48029,21.680837 82.18395,43.118767 11.39639,9.149119 25.81809,26.312029 40.29593,47.955179 9.09614,13.59797 19.55131,39.11487 23.36922,57.03492 1.29885,6.09643 3.38607,14.87143 4.63827,19.5 2.04485,7.55853 2.27676,10.65611 2.27718,30.41559 4.6e-4,21.26827 -0.10441,22.43239 -3.15301,35 -1.73442,7.15 -3.66745,15.925 -4.29564,19.5 -0.62818,3.575 -2.40501,9.425 -3.94851,13 -1.5435,3.575 -3.13413,7.625 -3.53473,9 -1.59412,5.47163 -12.717,27.11823 -18.26917,35.55422 -8.74256,13.28349 -16.80673,22.85567 -29.685,35.2361 -19.21231,18.46962 -29.21261,25.29911 -54.81518,37.43488 -23.10711,10.95291 -27.94099,12.63385 -51.22552,17.81328 -12.77735,2.8422 -33.8943,4.84991 -37,3.5178 z m 31.53214,-33.36662 c 5.24268,-1.13009 11.99268,-2.96056 15,-4.0677 3.00732,-1.10715 9.29286,-2.97052 13.96786,-4.14082 8.54637,-2.13942 19.07358,-6.88862 26.5,-11.95509 2.2,-1.50089 6.59551,-4.24568 9.7678,-6.09955 17.7624,-10.3802 37.14995,-30.21711 52.70493,-53.9265 8.51924,-12.98528 11.26482,-18.69464 16.44088,-34.18828 13.52508,-40.48498 13.51797,-76.56031 -0.023,-116.71505 -5.43099,-16.10517 -9.04273,-23.4786 -18.23188,-37.22069 C 391.64334,139.6551 372.22412,118.97223 359.42275,110.29405 345.85886,101.09894 322.80384,88.871835 316.13866,87.33856 312.4874,86.498614 304.775,84.312441 299,82.480398 c -13.71274,-4.350187 -23.87639,-5.690665 -44,-5.803134 -18.33144,-0.102453 -29.12867,1.419635 -44.5,6.273173 -4.95,1.562976 -11.7,3.39154 -15,4.063476 -7.30436,1.487292 -13.50164,4.550853 -31.86994,15.754587 -24.95032,15.21844 -41.13114,30.78065 -56.9071,54.7315 -25.939533,39.38105 -34.355255,91.5932 -22.243282,138 5.641525,21.6154 8.982003,29.8253 18.309772,45 19.2191,31.26624 34.21735,45.82385 67.71055,65.72127 14.57097,8.65623 15.75483,9.20209 24.5,11.29663 4.125,0.98797 10.58162,2.83881 14.34805,4.11298 3.76643,1.27417 9.61643,2.84187 13,3.48377 17.50668,3.32124 49.45248,3.35828 64.68409,0.075 z M 234.4596,333.45254 c -1.67222,-0.82463 -20.68472,-19.16454 -42.25,-40.75536 L 153,253.44114 l 0,-4.52479 c 0,-5.34016 3.90177,-12.23897 9.14483,-16.16917 4.39601,-3.29526 7.23361,-4.08637 11.67123,-3.25386 3.09762,0.58111 7.60754,4.69711 30.16306,27.52842 14.58649,14.76483 28.09588,27.77341 30.02088,28.90796 7.65085,4.50924 4.46984,7.09686 61.68685,-50.1797 55.28606,-55.34359 56.11951,-56.05896 62.65697,-53.77999 C 366.34276,184.75846 374,194.34225 374,201.56526 l 0,4.17369 -63.53844,63.36229 c -34.94614,34.84925 -64.08364,63.65028 -64.75,64.00229 -3.04467,1.60837 -8.36362,1.77335 -11.25196,0.34901 z"
       id="path3456"
       inkscape:connector-curvature="0" />
    <path
       style="fill:#41cf7e"
       d="M 236.03071,456.50629 C 212.05194,453.71906 211.35956,453.56486 190.5,446.36626 168.6277,438.81816 156.66944,432.92069 139.28976,421.1108 113.71912,403.73497 103.46351,393.33638 83.145679,364.18393 68.47425,343.13306 60.814928,324.06349 51.742987,286 50.002643,278.69797 49.70262,273.90608 49.614224,252 L 49.511327,226.5 53.169886,212 c 2.012207,-7.975 3.972396,-16.075 4.355975,-18 1.675949,-8.41078 17.928169,-43.8522 24.76255,-54 C 96.626078,118.7112 121.66182,93.219808 139.5,81.747158 c 11.56422,-7.437546 41.07,-21.673854 53.42316,-25.77626 17.6713,-5.868527 40.46679,-10.325961 52.57684,-10.280884 13.44501,0.05005 44.85143,3.861856 56.1392,6.813636 13.01577,3.403658 38.4629,12.765854 47.8608,17.608357 11.34527,5.845939 31.34783,19.306274 42.57674,28.651195 19.93576,16.590938 47.3976,55.764448 53.86788,76.840968 0.65779,2.14271 2.49178,7.04583 4.07552,10.89583 1.58375,3.85 3.61391,10.825 4.51147,15.5 0.89756,4.675 2.80365,13 4.23575,18.5 2.41761,9.28483 2.60569,11.57337 2.62977,32 0.0231,19.63041 -0.21897,22.96938 -2.24784,31 -1.25057,4.95 -3.32104,14.20433 -4.60103,20.56518 -1.27999,6.36085 -3.43761,13.78585 -4.7947,16.5 -1.3571,2.71415 -2.79303,6.28242 -3.19096,7.92948 -1.36569,5.65265 -12.75286,27.73643 -19.22118,37.27674 -12.33084,18.18707 -27.99995,34.99999 -45.84142,49.18774 -11.86039,9.43151 -16.72028,12.28745 -38.3353,22.52791 -23.14778,10.96662 -26.97841,12.30005 -48.98236,17.05051 -21.93269,4.73509 -31.55108,5.06072 -58.15163,1.96873 z M 287,425.20131 c 4.675,-1.04572 13.225,-3.3567 19,-5.13551 5.775,-1.7788 13.425,-4.1192 17,-5.20088 3.575,-1.08169 9.65,-3.94435 13.5,-6.36148 3.85,-2.41712 9.25,-5.60651 12,-7.08752 12.5514,-6.75958 33.15416,-24.97494 44.00661,-38.90724 8.87947,-11.3994 19.01991,-27.19363 22.92622,-35.70868 4.49615,-9.80083 9.98704,-27.1391 12.50009,-39.47084 6.40505,-31.43011 4.33084,-60.98895 -6.54233,-93.23249 -5.27031,-15.62867 -9.43109,-24.25919 -17.43174,-36.15787 -8.64673,-12.85953 -16.57475,-22.30935 -28.09874,-33.49235 -11.90605,-11.55375 -16.57174,-14.88253 -37.66329,-26.871162 -11.74958,-6.678575 -17.20659,-9.168259 -23.5,-10.721548 -4.50825,-1.11269 -12.25174,-3.29879 -17.20776,-4.857999 -12.42928,-3.910367 -23.10772,-5.230605 -42.98906,-5.31499 -18.3062,-0.0777 -28.38203,1.306711 -42.5,5.839467 -4.125,1.324384 -10.875,3.155922 -15,4.070084 -17.08789,3.786936 -50.88518,25.164918 -68.10497,43.078798 -48.607935,50.56722 -62.355554,118.13607 -38.066097,187.09292 3.878916,11.0121 14.865737,30.14015 25.122337,43.73798 6.99074,9.26806 26.64967,28.0549 35.54363,33.96688 13.79546,9.17009 33.77245,20.53073 37.97424,21.59545 2.21697,0.56177 8.08086,2.1953 13.03086,3.63006 18.80223,5.44987 23.3106,6.41356 34,7.26772 16.57839,1.32473 40.42832,0.49409 50.5,-1.7588 z m -52.5404,-91.74877 c -1.67222,-0.82463 -20.68472,-19.16454 -42.25,-40.75536 L 153,253.44114 l 0.004,-4.47057 c 0.009,-10.40317 11.46575,-21.23068 20.64328,-19.50897 3.27514,0.61442 7.15083,4.15569 29.31356,26.78418 26.03969,26.58693 32.12945,31.75422 37.423,31.75422 3.1811,0 15.22463,-11.57713 81.41237,-78.25952 31.66145,-31.89807 31.34494,-31.71395 42.04717,-24.46001 C 369.6828,189.23858 374,196.16046 374,201.56526 l 0,4.17369 -63.53844,63.36229 c -34.94614,34.84925 -64.08364,63.65028 -64.75,64.00229 -3.04467,1.60837 -8.36362,1.77335 -11.25196,0.34901 z"
       id="path3454"
       inkscape:connector-curvature="0" />
    <path
       style="fill:#36cd76"
       d="m 236,456.48806 c -11.275,-1.3277 -22.51344,-2.91256 -24.97432,-3.52192 -9.22555,-2.28438 -36.83989,-12.30585 -46.5023,-16.87606 -22.56143,-10.6713 -52.43696,-33.8369 -66.45282,-51.52776 C 88.757805,372.80773 75.914807,353.78662 71.824576,345.69074 66.104193,334.36826 60.146022,318.94058 58.040811,310 c -0.971302,-4.125 -2.703977,-10.65 -3.850389,-14.5 -4.004814,-13.44938 -4.692023,-20.10327 -4.647567,-45 l 0.04285,-24 4.297807,-17.5 C 58.909218,188.53611 58.64669,189.38078 63.973991,176.5344 70.509447,160.77465 80.492457,142.25209 87.511083,132.86349 102.47235,112.85026 122.972,92.582778 138.5,82.452024 c 12.22681,-7.976992 41.64451,-22.27088 54.5,-26.481228 18.21451,-5.965499 40.58219,-10.3262 52.5,-10.235159 12.34928,0.09434 43.19344,3.650003 54.10902,6.237604 11.11615,2.635146 39.0632,12.824309 49.39098,18.007364 11.06031,5.55068 28.622,17.160433 40.91287,27.046848 21.71187,17.464377 49.57894,56.880507 56.4861,79.895857 0.75543,2.51718 2.47189,7.05169 3.81435,10.07669 1.34246,3.025 2.99798,8.425 3.67893,12 0.68095,3.575 2.6482,12.35 4.37166,19.5 2.99499,12.42511 3.13427,13.92867 3.14958,34 0.0157,20.61613 -0.0508,21.29247 -3.64115,37 -2.01144,8.8 -3.97363,17.8 -4.36041,20 -0.38679,2.2 -2.16298,7.375 -3.94708,11.5 -1.78411,4.125 -3.57711,8.625 -3.98443,10 -1.42111,4.79723 -10.80867,23.5538 -15.26507,30.5 -14.75653,23.00099 -38.24719,47.09569 -60.72431,62.28576 -6.95333,4.69907 -41.75937,21.3596 -51.84512,24.81659 -3.76974,1.29212 -14.34474,3.96649 -23.5,5.94305 -22.00184,4.75005 -31.58595,5.07025 -58.14592,1.94266 z m 46.69924,-30.53207 c 5.94042,-1.12421 14.85076,-3.34735 19.80076,-4.94031 4.95,-1.59296 12.65592,-3.85719 17.12427,-5.03161 5.29217,-1.39095 11.04402,-3.89634 16.5,-7.18706 4.60665,-2.77846 10.97237,-6.55016 14.14603,-8.38155 9.38312,-5.41462 17.49057,-12.06539 30.30423,-24.85943 9.35078,-9.33645 14.17832,-15.21413 21.40075,-26.05603 11.09589,-16.65652 14.76567,-24.00438 19.97741,-40 12.79731,-39.27688 12.79909,-74.67775 0.006,-114 C 412.67442,166.96346 397.10774,143.80814 370.9114,119.56752 358.27236,107.87234 326.20358,89.274975 314,86.563564 309.875,85.647065 302.44508,83.606516 297.48906,82.029009 285.34457,78.163403 274.65544,76.807786 255,76.640462 c -17.46155,-0.148648 -31.14799,1.626177 -41.6381,5.399529 -2.82595,1.016511 -9.35095,2.82549 -14.5,4.019953 -10.94018,2.537876 -17.8416,5.800852 -36.04129,17.040236 -21.71766,13.41195 -37.36066,27.86289 -51.30984,47.39982 -12.85626,18.00621 -20.47254,33.86305 -26.063815,54.26398 -10.171103,37.11139 -8.459731,72.70195 5.385974,112.00939 3.913904,11.11142 15.099021,30.61206 25.080581,43.72663 7.86006,10.32717 26.5983,28.01337 36.94895,34.87447 14.34799,9.51082 32.10348,19.53862 36.63754,20.69185 2.2,0.55958 8.05,2.19131 13,3.62607 18.87087,5.46976 23.31902,6.41243 34,7.20537 20.64758,1.53284 34.62915,1.24783 46.19924,-0.94177 z M 236,334.24365 c -1.68302,-0.27226 -15.65346,-13.53244 -42.75,-40.57658 L 153,253.49493 l 0.004,-4.49747 c 0.006,-6.85321 5.14681,-14.4744 12.20642,-18.09478 4.5466,-2.33163 6.94319,-2.38799 11.0895,-0.2608 1.76019,0.90303 14.58201,13.25318 28.49295,27.44477 13.91094,14.1916 26.78905,26.72775 28.61803,27.85813 7.2831,4.5012 7.27142,4.50878 34.95876,-22.69478 13.85458,-13.6125 37.42398,-37.16169 52.37644,-52.33154 29.96408,-30.39973 31.78707,-31.74112 38.48645,-28.31891 C 368.43111,187.29852 374,194.44524 374,201.55136 l 0,4.1598 -63.52461,63.36844 c -34.93853,34.85264 -64.07603,63.65574 -64.75,64.00689 -1.91926,0.99997 -6.97707,1.60176 -9.72539,1.15716 z"
       id="path3452"
       inkscape:connector-curvature="0" />
    <path
       style="fill:#24c86a"
       d="M 241,457.02778 C 215.05922,454.08002 210.69631,453.1679 192.04136,446.79243 170.42792,439.40586 157.77517,433.46658 143.5,424.00679 116.06147,405.82398 104.19142,394.09703 84.279271,365.5 74.574159,351.5619 68.694013,340.67298 63.841286,327.65271 61.164418,320.47045 59.430763,314.58455 52.65308,289.66786 49.833656,279.30285 48.697937,263.61112 49.347782,244 c 0.565613,-17.06917 0.92432,-19.77614 4.637939,-35 4.920228,-20.17031 4.945628,-20.25318 9.808099,-32 5.317504,-12.84609 13.605175,-29.20388 18.492717,-36.5 12.28742,-18.34266 33.992843,-41.572121 50.234423,-53.761625 8.64036,-6.484696 39.54321,-22.981154 52.77691,-28.173201 C 201.194,52.328567 232.53431,45.629511 245.5,45.696847 c 12.9457,0.06723 45.18484,4.018335 56.25345,6.894201 12.89974,3.351636 37.88405,12.679583 48.37884,18.062346 16.67435,8.552258 39.69573,25.080448 51.18086,36.745276 7.12424,7.23572 22.43925,27.01821 29.88399,38.60133 8.16056,12.69686 18.02158,35.54002 21.80002,50.5 8.02258,31.76382 8.48222,34.8143 8.43805,56 -0.0411,19.696 -0.10676,20.304 -4.32233,40 -2.51796,11.76441 -5.64123,23.29424 -7.58482,28 -1.81729,4.4 -3.64338,9.125 -4.05797,10.5 -0.41459,1.375 -3.29712,7.675 -6.40562,14 -12.6488,25.73704 -31.05994,48.24382 -56.11246,68.59494 -12.2038,9.91362 -18.44134,13.64494 -39.45201,23.60035 -23.54028,11.154 -27.73163,12.62213 -49.39126,17.30056 -20.79356,4.49136 -31.41104,4.99754 -53.10874,2.53193 z m 41.69924,-31.02968 c 5.94042,-1.10104 15.07576,-3.32602 20.30076,-4.9444 5.225,-1.61838 13.34404,-4.07793 18.04232,-5.46566 5.62709,-1.66208 11.76992,-4.51747 18,-8.367 5.20172,-3.21411 12.04463,-7.37346 15.20645,-9.24299 9.83892,-5.81756 28.08006,-22.51104 37.67453,-34.47805 7.03632,-8.77627 18.32123,-25.95475 22.33532,-34 1.92092,-3.85 5.30868,-12.625 7.52836,-19.5 13.68009,-42.37128 13.15647,-77.44482 -1.79477,-120.21991 -7.68214,-21.9784 -22.47078,-44.38113 -42.19707,-63.92271 C 366.45739,114.6258 358.18251,108.69208 338.5,97.679746 325.05348,90.156442 319.93229,87.829675 314,86.548384 c -4.125,-0.890942 -11.55,-2.928715 -16.5,-4.528385 -12.60611,-4.073861 -22.31319,-5.30552 -42.5,-5.392503 -19.21335,-0.08279 -29.24946,1.316367 -45.5,6.343262 -4.95,1.531218 -11.475,3.357464 -14.5,4.058324 -8.18965,1.897454 -12.04055,3.780266 -29.54438,14.445078 -18.2894,11.14345 -25.73101,16.94187 -37.55283,29.26079 -36.918966,38.4714 -53.381057,87.1241 -47.847071,141.4091 1.178535,11.56069 5.19652,28.5648 10.286694,43.53328 3.962321,11.65184 3.809152,11.34684 13.470067,26.82267 18.59446,29.7865 34.09776,44.60785 67.18752,64.23212 11.82927,7.0155 15.67299,8.80714 22,10.25472 3.025,0.6921 9.55,2.53203 14.5,4.08874 12.64588,3.97694 17.64224,5.00679 28.5,5.8744 18.79692,1.50199 35.27173,1.16619 46.69924,-0.95188 z M 193.29314,293.70418 C 154.61508,255.02355 153,253.2586 153,249.67206 c 0,-7.775 6.02392,-16.37007 13.4647,-19.21173 7.85145,-2.99849 9.05108,-2.14443 37.0084,26.34762 13.76479,14.02807 26.78192,26.78504 28.92694,28.34882 2.66641,1.94389 5.10467,2.84323 7.70844,2.84323 3.69708,0 5.33686,-1.53082 56.09996,-52.37226 56.58607,-56.6734 56.32312,-56.45191 62.98033,-53.0507 5.97704,3.05371 9.00731,5.66269 11.93013,10.2715 3.33179,5.25368 3.73641,10.41709 1.10896,14.15146 -0.96743,1.375 -29.9059,30.5125 -64.3077,64.75 l -62.54874,62.25 -5.89257,0 -5.89257,0 -40.29314,-40.29582 z"
       id="path3450"
       inkscape:connector-curvature="0" />
    <path
       style="fill:#1dc766"
       d="m 241.5,457.02578 c -26.61142,-3.0767 -30.98143,-3.9404 -46.28257,-9.14735 -24.44272,-8.31781 -34.91041,-13.21349 -51.2734,-23.98028 -8.29844,-5.46034 -18.10827,-12.33766 -21.79963,-15.28293 -20.70797,-16.52256 -49.610139,-56.1036 -56.660303,-77.59535 -0.988738,-3.01407 -2.797033,-7.73979 -4.018435,-10.5016 -1.221401,-2.7618 -2.741481,-7.52991 -3.377955,-10.59579 -0.636475,-3.06588 -2.450705,-10.06873 -4.031624,-15.56188 -3.976927,-13.81847 -5.48572,-30.08021 -4.709819,-50.76236 0.557049,-14.84851 1.118934,-18.97886 4.625294,-34 C 58.325343,190.94677 58.918855,189.04113 64.747202,175 76.48107,146.73182 89.296598,127.75746 111.96791,105.08614 130.09988,86.954171 147.02595,75.848254 177.57961,62.035502 196.65588,53.411465 228.39634,45.752079 245,45.766082 c 8.1419,0.0069 39.23228,3.092298 48.5,4.813173 12.27488,2.279259 45.6314,14.219462 57.5,20.582527 17.82777,9.557933 38.81961,24.810522 50.19733,36.473168 17.78341,18.22876 38.62865,49.59013 43.77911,65.86505 0.69623,2.2 2.7384,7.60194 4.53816,12.0043 1.79976,4.40237 4.02385,12.05237 4.94241,17 0.91856,4.94764 2.85035,13.4957 4.29285,18.9957 2.43263,9.27513 2.62177,11.52222 2.60928,31 -0.0124,19.31069 -0.22808,21.88488 -2.68136,32 -1.46734,6.05 -3.52931,15.275 -4.58214,20.5 -2.64449,13.12412 -12.21531,36.32703 -21.57239,52.29881 -5.63501,9.61852 -18.0927,26.146 -26.15972,34.70582 -9.30797,9.87658 -27.12314,25.06426 -36.86234,31.42566 -11.7482,7.67362 -47.09353,23.98091 -58.50119,26.99072 -30.99078,8.17662 -44.66491,9.47611 -69.5,6.60477 z m 46.70648,-31.86205 c 5.33856,-1.15529 11.39304,-2.80521 13.4544,-3.6665 2.06136,-0.8613 8.21686,-2.6988 13.67889,-4.08336 10.19954,-2.58545 16.42125,-5.27519 25.16023,-10.87717 2.75,-1.76284 8.50085,-5.34505 12.77968,-7.96047 19.98241,-12.21419 40.60235,-34.43126 56.65009,-61.03796 10.75056,-17.82414 18.88464,-45.57782 21.20355,-72.34706 2.41873,-27.92164 -4.17961,-63.44422 -16.67038,-89.74604 -10.71477,-22.56208 -36.6035,-53.11394 -55.79775,-65.84814 C 354.17434,106.61762 343.975,100.54796 336,96.108883 324.39504,89.649288 319.92735,87.714737 313.62329,86.419562 309.2911,85.52951 302.0585,83.523388 297.55084,81.961513 286.51032,78.136043 274.81458,76.681599 254.5,76.607855 c -18.44389,-0.06695 -29.78825,1.468355 -43.5,5.887149 -4.125,1.329336 -11.29324,3.366974 -15.92942,4.528085 -10.23165,2.562473 -10.28061,2.586661 -32.05775,15.836891 -16.45905,10.01446 -18.31235,11.46312 -31.52255,24.64002 -16.74104,16.69885 -24.98242,27.93484 -34.473565,47 -8.019755,16.10952 -12.810618,31.04323 -16.040441,50 -1.944814,11.41468 -2.14416,15.25603 -1.634683,31.5 0.683224,21.78367 1.440233,27.29153 6.063348,44.1158 5.092359,18.53193 8.6524,26.90053 17.573001,41.30892 10.63575,17.17865 14.39814,21.96491 28.01097,35.63369 10.99426,11.03945 20.99263,18.77915 33.00149,25.54634 3.03028,1.70761 9.1096,5.20504 13.5096,7.77207 4.4,2.56703 9.8,5.12647 12,5.68763 2.2,0.56117 7.825,2.15181 12.5,3.53475 24.44464,7.23113 33.26946,8.39975 60,7.94547 12.15361,-0.20655 19.05686,-0.83373 26.20648,-2.38094 z m -95.02295,-131.69227 -40.4325,-40.52854 0.46948,-4.88597 c 0.62694,-6.52477 5.7076,-13.62932 12.09876,-16.91833 8.35147,-4.29782 8.91531,-3.91182 39.45954,27.01355 14.69665,14.88004 27.93634,27.6831 29.42153,28.45123 1.48519,0.76813 4.41019,1.40811 6.5,1.42218 3.69959,0.0249 5.15612,-1.34321 55.30635,-51.94937 36.22686,-36.55619 52.62869,-52.44374 55.2888,-53.55521 3.52079,-1.47107 4.07386,-1.45121 8.00453,0.28752 7.98675,3.53291 14.68909,12.05649 14.69768,18.69148 0.005,3.95903 -0.63757,4.64306 -62.74626,66.78077 -34.51329,34.52943 -63.96659,63.44193 -65.45178,64.25 C 244.31447,333.33885 240.96558,334 238.35767,334 l -4.74164,0 -40.4325,-40.52854 z"
       id="path3448"
       inkscape:connector-curvature="0" />
  </g>
</svg>
