<?xml version="1.0" encoding="iso-8859-1"?>
<!-- Generator: Adobe Illustrator 19.1.1, SVG Export Plug-In . SVG Version: 6.00 Build 0)  -->
<svg version="1.1" id="Layer_1" xmlns="http://www.w3.org/2000/svg" xmlns:xlink="http://www.w3.org/1999/xlink" x="0px" y="0px"
	 viewBox="0 0 40 40" style="enable-background:new 0 0 40 40;" xml:space="preserve">
<g>
	<path style="fill:#FFEEA3;" d="M20,38.5C9.799,38.5,1.5,30.201,1.5,20S9.799,1.5,20,1.5S38.5,9.799,38.5,20S30.201,38.5,20,38.5z"
		/>
	<path style="fill:#C29653;" d="M20,2c9.925,0,18,8.075,18,18s-8.075,18-18,18S2,29.925,2,20S10.075,2,20,2 M20,1
		C9.507,1,1,9.507,1,20s8.507,19,19,19s19-8.507,19-19S30.493,1,20,1L20,1z"/>
</g>
<path style="fill:none;stroke:#C29653;stroke-miterlimit:10;" d="M12,30.482c0,0,3.143,0,8.143,0c9,0,10.207-4,10.207-4"/>
<g>
	<g>
		<path style="fill:#4E5E6D;" d="M27,23.5c-5.302,0-6.5-5.49-6.5-6.5h-1c0,1.01-1.198,6.5-6.5,6.5c-5.342,0-7.5-4.587-7.5-6.5v-0.5
			h-1v-1h31v1h-1V17C34.5,18.913,32.342,23.5,27,23.5z"/>
	</g>
	<g>
		<path style="fill:#36404D;" d="M34,16v1c0,1.766-2.014,6-7,6c-4.882,0-6-5.213-6-6h-2c0,0.787-1.118,6-6,6c-4.986,0-7-4.234-7-6
			v-1h14H34 M36,15h-1H20H5H4v2h1c0,2.111,2.271,7,8,7c5.637,0,7-5.835,7-7c0,1.165,1.363,7,7,7c5.729,0,8-4.889,8-7h1V15L36,15z"/>
	</g>
</g>
</svg>
